<svg width="30" height="30" viewBox="0 0 30 30" fill="none" xmlns="http://www.w3.org/2000/svg">
<path d="M23.7495 13.7498H9.78704L15.887 7.64983C16.3745 7.16233 16.3745 6.36233 15.887 5.87483C15.7714 5.75895 15.634 5.66702 15.4828 5.60429C15.3316 5.54156 15.1695 5.50928 15.0058 5.50928C14.8421 5.50928 14.68 5.54156 14.5288 5.60429C14.3775 5.66702 14.2402 5.75895 14.1245 5.87483L5.88704 14.1123C5.77116 14.228 5.67923 14.3653 5.6165 14.5166C5.55377 14.6678 5.52148 14.8299 5.52148 14.9936C5.52148 15.1573 5.55377 15.3194 5.6165 15.4706C5.67923 15.6218 5.77116 15.7592 5.88704 15.8748L14.1245 24.1123C14.2403 24.2281 14.3777 24.3199 14.5289 24.3825C14.6801 24.4451 14.8421 24.4774 15.0058 24.4774C15.1695 24.4774 15.3315 24.4451 15.4827 24.3825C15.6339 24.3199 15.7713 24.2281 15.887 24.1123C16.0028 23.9966 16.0946 23.8592 16.1572 23.708C16.2198 23.5568 16.2521 23.3947 16.2521 23.2311C16.2521 23.0674 16.2198 22.9054 16.1572 22.7542C16.0946 22.6029 16.0028 22.4656 15.887 22.3498L9.78704 16.2498H23.7495C24.437 16.2498 24.9995 15.6873 24.9995 14.9998C24.9995 14.3123 24.437 13.7498 23.7495 13.7498Z" fill="#111111"/>
</svg>
