<svg width="20" height="20" viewBox="0 0 20 20" fill="none" xmlns="http://www.w3.org/2000/svg">
<path d="M4.99913 17.5C5.39163 17.5 5.69413 17.31 5.91788 17.0312C6.15538 16.7325 6.24913 16.3975 6.24913 16.25C6.24913 15.375 6.29288 14.3787 6.48163 13.4337C6.67038 12.4962 7.01538 11.5525 7.65788 10.8337C8.22913 10.1962 8.80538 9.47125 9.24538 8.4725C9.57074 7.71641 9.78748 6.91808 9.88913 6.10125C10.1744 6.22279 10.4853 6.2717 10.7941 6.2436C11.1029 6.21549 11.3999 6.11125 11.6585 5.9402C11.9171 5.76916 12.1293 5.53665 12.276 5.26349C12.4227 4.99033 12.4994 4.68506 12.4991 4.375C12.4993 4.20924 12.4336 4.0502 12.3165 3.93288C12.1994 3.81555 12.0405 3.74954 11.8748 3.74938C11.7927 3.74929 11.7114 3.76538 11.6355 3.79671C11.5597 3.82804 11.4907 3.87401 11.4326 3.93199C11.3153 4.04908 11.2493 4.20799 11.2491 4.37375C11.2491 4.53951 11.1833 4.69848 11.0661 4.81569C10.9489 4.9329 10.7899 4.99875 10.6241 4.99875C10.4584 4.99875 10.2994 4.9329 10.1822 4.81569C10.065 4.69848 9.99913 4.53951 9.99913 4.37375V3.12375C9.99946 2.62669 10.1972 2.15009 10.5487 1.79873C10.9003 1.44737 11.3771 1.25 11.8741 1.25H13.4029C13.7429 1.25003 14.0764 1.3425 14.3679 1.5175L16.5891 2.85C16.8667 3.0166 17.0964 3.25221 17.2558 3.53391C17.4153 3.81561 17.4991 4.1338 17.4991 4.4575V5.625C17.4991 6.12228 17.3016 6.59919 16.95 6.95083C16.5983 7.30246 16.1214 7.5 15.6241 7.5H14.9991V15.0625C15.705 15.2066 16.3394 15.5901 16.7949 16.1482C17.2505 16.7063 17.4993 17.4046 17.4991 18.125C17.4991 18.2908 17.4333 18.4497 17.3161 18.5669C17.1989 18.6842 17.0399 18.75 16.8741 18.75H13.7491V18.125C13.7491 17.1012 13.2579 16.1938 12.4991 15.625V13.125C12.4991 12.9592 12.4333 12.8003 12.3161 12.6831C12.1989 12.5658 12.0399 12.5 11.8741 12.5C11.7084 12.5 11.5494 12.5658 11.4322 12.6831C11.315 12.8003 11.2491 12.9592 11.2491 13.125V15.0625C11.0434 15.0208 10.834 14.9998 10.6241 15H9.99913C9.83337 15 9.6744 15.0658 9.55719 15.1831C9.43998 15.3003 9.37413 15.4592 9.37413 15.625C9.37413 15.7908 9.43998 15.9497 9.55719 16.0669C9.6744 16.1842 9.83337 16.25 9.99913 16.25H10.6241C11.1214 16.25 11.5983 16.4475 11.95 16.7992C12.3016 17.1508 12.4991 17.6277 12.4991 18.125V18.75H4.68663C3.94899 18.7502 3.23083 18.5132 2.63828 18.0739C2.04572 17.6345 1.61021 17.0163 1.39607 16.3104C1.18194 15.6045 1.20055 14.8485 1.44916 14.154C1.69777 13.4595 2.16318 12.8634 2.77663 12.4538C2.8448 12.4064 2.9217 12.3731 3.00287 12.3558C3.08404 12.3385 3.16784 12.3375 3.24939 12.353C3.33093 12.3684 3.40859 12.3999 3.47782 12.4457C3.54705 12.4915 3.60648 12.5505 3.65263 12.6195C3.69878 12.6885 3.73073 12.766 3.74662 12.8474C3.7625 12.9289 3.76201 13.0127 3.74516 13.094C3.72831 13.1752 3.69545 13.2523 3.64848 13.3207C3.60152 13.3892 3.5414 13.4476 3.47163 13.4925C3.08093 13.753 2.78443 14.1324 2.62598 14.5744C2.46754 15.0165 2.45555 15.4978 2.5918 15.9472C2.72805 16.3966 3.0053 16.7902 3.38255 17.0698C3.75981 17.3495 4.21704 17.5003 4.68663 17.5H4.99913Z" fill="white"/>
</svg>
