<svg width="21" height="20" viewBox="0 0 21 20" fill="none" xmlns="http://www.w3.org/2000/svg">
<path d="M9.00945 2.1813C9.0907 1.01255 10.1995 0.1088 11.3945 0.4063L11.7207 0.4888C12.2995 0.6338 12.8132 1.0588 12.9857 1.69505C13.2607 2.71505 13.652 4.8338 13.0632 7.33255C13.2473 7.30712 13.4319 7.28586 13.617 7.2688C14.5082 7.18755 15.7032 7.1788 16.762 7.5313C17.4095 7.74755 18.0045 8.38255 18.262 9.12255C18.492 9.78755 18.462 10.575 17.9695 11.2888C18.042 11.4375 18.0982 11.5913 18.142 11.7425C18.2382 12.08 18.2832 12.4513 18.2832 12.8125C18.2832 13.1738 18.2382 13.545 18.142 13.8825C18.0932 14.0513 18.0295 14.2238 17.942 14.3875C18.1532 14.8713 18.0757 15.4113 17.9382 15.8225C17.7974 16.2286 17.5914 16.609 17.3282 16.9488C17.3957 17.1388 17.4232 17.3388 17.4232 17.53C17.4232 17.9113 17.312 18.3113 17.107 18.67C16.6895 19.4025 15.8607 20 14.6895 20H10.3145C9.5582 20 8.97695 19.8988 8.48195 19.7275C8.05632 19.5721 7.64958 19.3692 7.26945 19.1225L7.20945 19.085C6.57945 18.7013 5.9607 18.3238 4.62445 18.1825C3.66695 18.08 2.81445 17.3075 2.81445 16.25V11.25C2.81445 10.1875 3.6707 9.46005 4.5107 9.2313C5.57195 8.9413 6.4782 8.24755 7.1757 7.4688C7.8757 6.68505 8.3182 5.8688 8.47445 5.42005C8.7232 4.7013 8.91945 3.4963 9.00945 2.18255V2.1813Z" fill="white"/>
</svg>
