<svg width="129" height="220" viewBox="0 0 129 220" fill="none" xmlns="http://www.w3.org/2000/svg">
<g clip-path="url(#clip0_856_674)">
<path d="M41.7844 171.199C44.6467 163.616 42.3504 156.629 40.1376 149.879C38.2133 144.004 36.3975 138.455 37.4729 132.129C40.4847 114.635 42.6728 104.389 31.456 94.9774C20.2392 85.5654 10.516 89.4919 -6.20182 95.4774C-12.2549 97.6422 -18.0579 96.8067 -24.1865 95.9326C-31.2199 94.9278 -38.4841 93.8805 -45.4522 97.9986C-48.0238 99.4341 -50.3065 101.335 -52.1842 103.604C-60.1643 113.114 -59.0826 127.209 -50.6904 134.251C-42.2982 141.293 -27.6912 146.337 -18.2486 154.26C-8.80591 162.184 -1.45555 175.564 7.04166 182.694C15.5389 189.824 29.4767 188.332 37.4568 178.821C39.3577 176.57 40.8249 173.985 41.7844 171.199Z" fill="#F4F4F4"/>
<path d="M-30.3137 81.3341C-23.0939 87.3923 -10.9268 84.7783 -3.13773 75.4957C4.65132 66.2131 5.11278 53.7769 -2.10705 47.7188C-9.32687 41.6606 -21.494 44.2746 -29.283 53.5572C-37.0721 62.8398 -37.5335 75.276 -30.3137 81.3341Z" fill="#F4F4F4"/>
<path d="M14.6355 80.8625C21.8554 86.9206 34.0224 84.3066 41.8115 75.024C49.6005 65.7414 50.062 53.3052 42.8422 47.2471C35.6224 41.1889 23.4553 43.8029 15.6662 53.0855C7.87716 62.3681 7.41571 74.8043 14.6355 80.8625Z" fill="#F4F4F4"/>
<path d="M48.2508 109.069C55.4706 115.127 67.6377 112.513 75.4267 103.231C83.2158 93.9479 83.6772 81.5118 76.4574 75.4536C69.2376 69.3955 57.0705 72.0094 49.2814 81.2921C41.4924 90.5747 41.0309 103.011 48.2508 109.069Z" fill="#F4F4F4"/>
<path d="M55.5906 153.418C62.8104 159.476 74.9775 156.862 82.7666 147.579C90.5556 138.297 91.0171 125.86 83.7973 119.802C76.5774 113.744 64.4103 116.358 56.6213 125.641C48.8322 134.923 48.3708 147.359 55.5906 153.418Z" fill="#F4F4F4"/>
</g>
<defs>
<clipPath id="clip0_856_674">
<rect width="156.024" height="156.024" fill="white" transform="translate(9.29102) rotate(40)"/>
</clipPath>
</defs>
</svg>
