<svg width="21" height="20" viewBox="0 0 21 20" fill="none" xmlns="http://www.w3.org/2000/svg">
<path d="M17.9707 10H16.877C16.791 10 16.7207 10.0703 16.7207 10.1562V16.4062H3.9082V3.59375H10.1582C10.2441 3.59375 10.3145 3.52344 10.3145 3.4375V2.34375C10.3145 2.25781 10.2441 2.1875 10.1582 2.1875H3.12695C2.78125 2.1875 2.50195 2.4668 2.50195 2.8125V17.1875C2.50195 17.5332 2.78125 17.8125 3.12695 17.8125H17.502C17.8477 17.8125 18.127 17.5332 18.127 17.1875V10.1562C18.127 10.0703 18.0566 10 17.9707 10Z" fill="white"/>
<path d="M7.26564 10.4473L7.22854 12.7695C7.22658 12.9434 7.36721 13.0859 7.54104 13.0859H7.54885L9.85354 13.0293C9.8926 13.0273 9.93166 13.0117 9.959 12.9844L18.0821 4.87891C18.1426 4.81836 18.1426 4.71875 18.0821 4.6582L15.6543 2.23242C15.6231 2.20117 15.584 2.1875 15.543 2.1875C15.502 2.1875 15.4629 2.20313 15.4317 2.23242L7.31057 10.3379C7.28236 10.3674 7.26631 10.4065 7.26564 10.4473V10.4473ZM8.50588 10.9082L15.543 3.88672L16.4258 4.76758L9.38479 11.793L8.49221 11.8145L8.50588 10.9082V10.9082Z" fill="white"/>
</svg>
