<svg width="262" height="432" viewBox="0 0 262 432" fill="none" xmlns="http://www.w3.org/2000/svg">
<g clip-path="url(#clip0_854_714)">
<path d="M341.87 192.317C328.193 184.203 313.91 186.26 300.114 188.236C288.106 189.952 276.765 191.57 264.908 187.337C232.131 175.557 213.08 167.838 191.072 186.305C169.064 204.772 173.338 224.897 179.208 259.24C181.329 271.674 177.737 282.602 173.96 294.146C169.622 307.394 165.124 321.073 170.707 335.94C172.604 341.398 175.499 346.457 179.243 350.858C194.901 369.518 222.504 372.23 238.97 358.413C255.436 344.597 270.16 318.091 288.687 302.545C307.214 286.999 335.572 277.355 352.244 263.365C368.916 249.376 370.782 221.936 355.124 203.276C351.421 198.836 346.927 195.121 341.87 192.317Z" fill="#F4F4F4"/>
<path d="M143.664 301.015C157.83 289.128 156.925 264.728 141.642 246.515C126.359 228.302 102.487 223.173 88.3212 235.059C74.1555 246.946 75.0608 271.346 90.3434 289.559C105.626 307.772 129.499 312.901 143.664 301.015Z" fill="#F4F4F4"/>
<path d="M158.067 213.999C172.232 202.113 171.327 177.713 156.044 159.499C140.762 141.286 116.889 136.158 102.724 148.044C88.5578 159.931 89.4632 184.331 104.746 202.544C120.028 220.757 143.901 225.886 158.067 213.999Z" fill="#F4F4F4"/>
<path d="M224.022 158.657C238.187 146.77 237.282 122.37 221.999 104.157C206.717 85.9436 182.844 80.8149 168.679 92.7013C154.513 104.588 155.418 128.988 170.701 147.201C185.983 165.414 209.856 170.543 224.022 158.657Z" fill="#F4F4F4"/>
<path d="M312.217 159.582C326.383 147.695 325.477 123.295 310.195 105.082C294.912 86.8689 271.04 81.7402 256.874 93.6266C242.708 105.513 243.614 129.914 258.896 148.127C274.179 166.34 298.051 171.468 312.217 159.582Z" fill="#F4F4F4"/>
</g>
<defs>
<clipPath id="clip0_854_714">
<rect width="306.128" height="306.128" fill="white" transform="translate(0 196.775) rotate(-40)"/>
</clipPath>
</defs>
</svg>
