<svg width="410" height="104" viewBox="0 0 410 104" fill="none" xmlns="http://www.w3.org/2000/svg">
<path fill-rule="evenodd" clip-rule="evenodd" d="M0 22.2726L17.2083 29.0832C34.4167 35.8938 68.8333 49.515 103.25 42.7044C137.667 35.8938 172.083 8.65132 206.5 1.8407C240.917 -4.96992 275.333 8.65132 309.75 17.7321C344.167 26.813 378.583 31.3534 395.792 33.6236L413 35.8938V104H395.792C378.583 104 344.167 104 309.75 104C275.333 104 240.917 104 206.5 104C172.083 104 137.667 104 103.25 104C68.8333 104 34.4167 104 17.2083 104H0V22.2726Z" fill="#FFEF3D" fill-opacity="0.6"/>
</svg>
