<svg width="30" height="30" viewBox="0 0 30 30" fill="none" xmlns="http://www.w3.org/2000/svg">
<path d="M27.4995 15.8333C27.3899 15.8339 27.2811 15.8129 27.1796 15.7715C27.0781 15.73 26.9857 15.6689 26.9079 15.5916L14.9995 3.67498L3.0912 15.5916C2.93178 15.7282 2.72672 15.7995 2.51699 15.7914C2.30726 15.7833 2.10831 15.6964 1.9599 15.5479C1.81149 15.3995 1.72454 15.2006 1.71644 14.9909C1.70834 14.7811 1.77968 14.5761 1.9162 14.4166L14.4162 1.91664C14.5723 1.76143 14.7835 1.67432 15.0037 1.67432C15.2239 1.67432 15.4351 1.76143 15.5912 1.91664L28.0912 14.4166C28.2059 14.5336 28.2835 14.6818 28.3144 14.8427C28.3454 15.0036 28.3282 15.17 28.2651 15.3211C28.2019 15.4723 28.0956 15.6015 27.9595 15.6926C27.8233 15.7837 27.6633 15.8326 27.4995 15.8333Z" fill="white"/>
<path d="M15 6.4917L5 16.525V26.6667C5 27.1087 5.17559 27.5326 5.48816 27.8452C5.80072 28.1578 6.22464 28.3334 6.66667 28.3334H12.5V20H17.5V28.3334H23.3333C23.7754 28.3334 24.1993 28.1578 24.5118 27.8452C24.8244 27.5326 25 27.1087 25 26.6667V16.4667L15 6.4917Z" fill="white"/>
</svg>
