<svg width="35" height="35" viewBox="0 0 35 35" fill="none" xmlns="http://www.w3.org/2000/svg">
<path d="M20.9998 3.5C20.4223 3.5 19.5753 3.66625 18.8473 4.1895C18.0773 4.746 17.4998 5.66475 17.4998 7V9.19275C17.4998 9.41675 17.575 9.77375 17.7728 10.0485C17.9373 10.2778 18.2208 10.5035 18.8105 10.5035C19.4003 10.5035 19.6838 10.2778 19.8483 10.0485C20.0207 9.79593 20.1156 9.4985 20.1213 9.19275C20.1213 8.96069 20.2135 8.73813 20.3776 8.57403C20.5417 8.40994 20.7642 8.31775 20.9963 8.31775C21.2284 8.31775 21.4509 8.40994 21.615 8.57403C21.7791 8.73813 21.8713 8.96069 21.8713 9.19275C21.8713 9.6985 21.7278 10.4353 21.2693 11.0705C20.7793 11.753 19.9708 12.2535 18.8105 12.2535C18.2505 12.2535 17.7693 12.1363 17.3685 11.9385C17.1183 13.8845 16.3885 16.499 14.2553 18.6305C12.3548 20.5327 11.422 22.8883 10.9635 24.7257C10.7189 25.7104 10.5666 26.7158 10.5085 27.7288C10.5055 27.7929 10.5031 27.8571 10.5015 27.9212V27.9755L10.4998 27.993V28C10.4998 28.0088 10.4998 28.0262 10.4963 28.0507C10.4757 28.3535 10.3966 28.6495 10.2635 28.9223C10.1557 29.1498 9.98969 29.3447 9.7823 29.4875C9.5723 29.6275 9.2538 29.75 8.7498 29.75C8.01521 29.75 7.29924 29.5189 6.70331 29.0893C6.10738 28.6598 5.6617 28.0537 5.42941 27.3568C5.19711 26.6599 5.18997 25.9076 5.409 25.2064C5.62803 24.5052 6.06213 23.8908 6.6498 23.45C6.74172 23.3809 6.81915 23.2945 6.87765 23.1955C6.93615 23.0965 6.97458 22.987 6.99075 22.8731C7.00692 22.7593 7.00051 22.6434 6.97188 22.532C6.94326 22.4207 6.89298 22.316 6.82392 22.2241C6.75486 22.1322 6.66837 22.0548 6.56939 21.9963C6.47041 21.9378 6.36088 21.8993 6.24705 21.8832C6.13321 21.867 6.01731 21.8734 5.90596 21.902C5.7946 21.9307 5.68997 21.9809 5.59805 22.05C4.71642 22.7112 4.06522 23.6331 3.73672 24.685C3.40822 25.737 3.41907 26.8656 3.76774 27.911C4.1164 28.9564 4.78521 29.8656 5.67938 30.5098C6.57356 31.1539 7.64776 31.5004 8.7498 31.5H22.7498V30.625C22.7498 29.9163 22.4208 28.7945 21.467 28.294C21.0506 28.0873 20.5896 27.9863 20.1248 28H18.3748C18.1427 28 17.9202 27.9078 17.7561 27.7437C17.592 27.5796 17.4998 27.3571 17.4998 27.125C17.4998 26.8929 17.592 26.6704 17.7561 26.5063C17.9202 26.3422 18.1427 26.25 18.3748 26.25H20.1248C20.4328 26.25 20.7233 26.2745 20.9998 26.32V21.875C20.9998 21.6429 21.092 21.4204 21.2561 21.2563C21.4202 21.0922 21.6427 21 21.8748 21C22.1069 21 22.3294 21.0922 22.4935 21.2563C22.6576 21.4204 22.7498 21.6429 22.7498 21.875V27.034C24.1323 28.0315 24.4998 29.6905 24.4998 30.625V31.5H28.8748C29.1069 31.5 29.3294 31.4078 29.4935 31.2437C29.6576 31.0796 29.7498 30.8571 29.7498 30.625C29.7498 29.1025 29.2318 27.9598 28.341 27.2178C27.739 26.7326 27.0159 26.421 26.2498 26.3165V12.25H27.1248C27.821 12.25 28.4887 11.9734 28.981 11.4812C29.4732 10.9889 29.7498 10.3212 29.7498 9.625V7.49525C29.7497 7.19328 29.6715 6.89647 29.5228 6.63366C29.3741 6.37086 29.1599 6.15101 28.901 5.9955L25.7808 4.123C25.1009 3.71527 24.3231 3.49993 23.5303 3.5H20.9998Z" fill="white"/>
</svg>
