<svg width="25" height="25" viewBox="0 0 25 25" fill="none" xmlns="http://www.w3.org/2000/svg">
<path d="M2.44215 15.9075L4.52548 19.5116C4.66379 19.7507 4.89139 19.925 5.15822 19.9963C5.42505 20.0676 5.70928 20.03 5.9484 19.8918L7.40257 19.0522C8.00673 19.5283 8.67444 19.9189 9.37652 20.2106V21.8752C9.37652 22.1514 9.48627 22.4164 9.68162 22.6117C9.87697 22.8071 10.1419 22.9168 10.4182 22.9168H14.5849C14.8611 22.9168 15.1261 22.8071 15.3214 22.6117C15.5168 22.4164 15.6265 22.1514 15.6265 21.8752V20.2106C16.3341 19.916 16.9982 19.5263 17.6005 19.0522L19.0546 19.8918C19.5515 20.1783 20.1911 20.0064 20.4776 19.5116L22.5609 15.9075C22.698 15.6681 22.735 15.3842 22.6637 15.1177C22.5925 14.8512 22.4189 14.6236 22.1807 14.4845L20.7515 13.6585C20.8632 12.8903 20.8625 12.1099 20.7494 11.3418L22.1786 10.5158C22.6744 10.2293 22.8463 9.58871 22.5588 9.09287L20.4755 5.4887C20.3372 5.24964 20.1096 5.07529 19.8427 5.00399C19.5759 4.93269 19.2917 4.97028 19.0526 5.1085L17.5984 5.94808C16.9969 5.47347 16.333 5.08372 15.6255 4.78975V3.12516C15.6255 2.8489 15.5157 2.58394 15.3204 2.38859C15.125 2.19324 14.8601 2.0835 14.5838 2.0835H10.4171C10.1409 2.0835 9.87593 2.19324 9.68058 2.38859C9.48523 2.58394 9.37548 2.8489 9.37548 3.12516V4.78975C8.6679 5.08434 8.0038 5.47404 7.40152 5.94808L5.9484 5.1085C5.83003 5.03992 5.69931 4.99536 5.5637 4.97735C5.42809 4.95935 5.29027 4.96826 5.15811 5.00357C5.02595 5.03889 4.90205 5.09991 4.7935 5.18315C4.68494 5.2664 4.59387 5.37023 4.52548 5.4887L2.44215 9.09287C2.30505 9.33225 2.26809 9.6161 2.3393 9.88261C2.41051 10.1491 2.58413 10.3767 2.82236 10.5158L4.25152 11.3418C4.13917 12.11 4.13917 12.8904 4.25152 13.6585L2.82236 14.4845C2.32652 14.771 2.15465 15.4116 2.44215 15.9075ZM12.5005 8.3335C14.7984 8.3335 16.6671 10.2022 16.6671 12.5002C16.6671 14.7981 14.7984 16.6668 12.5005 16.6668C10.2026 16.6668 8.33382 14.7981 8.33382 12.5002C8.33382 10.2022 10.2026 8.3335 12.5005 8.3335Z" fill="white"/>
</svg>
