<svg width="168" height="187" viewBox="0 0 168 187" fill="none" xmlns="http://www.w3.org/2000/svg">
<g clip-path="url(#clip0_750_633)">
<path d="M42.2562 116.531C46.3747 105.62 43.0707 95.5663 39.8867 85.8542C37.1179 77.4006 34.5052 69.4157 36.0525 60.3137C40.3861 35.1416 43.5346 20.4 27.395 6.85721C11.2553 -6.68556 -2.73524 -1.03579 -26.7902 7.57665C-35.4999 10.6916 -43.8497 9.48933 -52.6681 8.23159C-62.7883 6.78585 -73.2406 5.27892 -83.2668 11.2043C-86.9671 13.2698 -90.2516 16.0045 -92.9534 19.2693C-104.436 32.9536 -102.879 53.2343 -90.804 63.3668C-78.7287 73.4992 -57.7109 80.7577 -44.124 92.1585C-30.5372 103.559 -19.9609 122.811 -7.73441 133.07C4.49208 143.33 24.5469 141.183 36.0294 127.499C38.7645 124.259 40.8757 120.54 42.2562 116.531V116.531Z" fill="#111111" fill-opacity="0.05"/>
<path d="M3.18882 -13.454C13.5773 -4.73704 31.0843 -8.49821 42.2918 -21.8548C53.4993 -35.2114 54.1633 -53.1056 43.7748 -61.8225C33.3864 -70.5395 15.8794 -66.7783 4.67184 -53.4217C-6.53567 -40.0651 -7.19964 -22.171 3.18882 -13.454Z" fill="#111111" fill-opacity="0.05"/>
<path d="M51.5579 27.1319C61.9464 35.8489 79.4534 32.0877 90.6609 18.7311C101.868 5.37452 102.532 -12.5196 92.144 -21.2366C81.7555 -29.9535 64.2485 -26.1924 53.041 -12.8358C41.8335 0.520848 41.1695 18.415 51.5579 27.1319Z" fill="#111111" fill-opacity="0.05"/>
<path d="M62.1205 90.9454C72.509 99.6624 90.016 95.9012 101.223 82.5446C112.431 69.188 113.095 51.2939 102.706 42.5769C92.318 33.86 74.811 37.6211 63.6035 50.9777C52.396 64.3343 51.732 82.2285 62.1205 90.9454Z" fill="#111111" fill-opacity="0.05"/>
</g>
<defs>
<clipPath id="clip0_750_633">
<rect width="224.5" height="224.5" fill="white" transform="translate(-4.5 -129.805) rotate(40)"/>
</clipPath>
</defs>
</svg>
