<svg width="378" height="547" viewBox="0 0 378 547" fill="none" xmlns="http://www.w3.org/2000/svg">
<g clip-path="url(#clip0_750_627)">
<path d="M440.927 271.833C425.169 258.288 406.323 257.693 388.122 257.106C372.281 256.59 357.32 256.099 343.024 247.961C303.519 225.366 280.756 211.111 248.246 229.881C215.737 248.65 216.67 275.517 216.431 321.04C216.339 337.521 209.238 350.768 201.758 364.766C193.17 380.83 184.278 397.412 188.089 417.809C189.292 425.263 191.869 432.429 195.689 438.942C211.603 466.506 246.507 476.259 270.83 462.216C295.153 448.173 320.114 417.406 347.482 401.606C374.85 385.805 413.528 379.829 438.156 365.61C462.783 351.392 471.41 316.506 455.496 288.942C451.738 282.388 446.799 276.587 440.927 271.833V271.833Z" fill="#111111" fill-opacity="0.05"/>
<path d="M161.215 366.73C182.14 354.649 186.511 323.045 170.978 296.141C155.445 269.237 125.89 257.221 104.965 269.302C84.0395 281.383 79.6682 312.987 95.2012 339.891C110.734 366.795 140.289 378.811 161.215 366.73Z" fill="#111111" fill-opacity="0.05"/>
<path d="M199.49 258.029C220.415 245.948 224.787 214.344 209.254 187.44C193.721 160.536 164.165 148.52 143.24 160.601C122.315 172.682 117.944 204.286 133.477 231.19C149.01 258.094 178.565 270.11 199.49 258.029Z" fill="#111111" fill-opacity="0.05"/>
<path d="M296.918 201.778C317.843 189.697 322.215 158.093 306.682 131.19C291.149 104.286 261.593 92.2694 240.668 104.351C219.743 116.432 215.371 148.036 230.904 174.94C246.437 201.843 275.993 213.86 296.918 201.778Z" fill="#111111" fill-opacity="0.05"/>
<path d="M410.195 222.981C431.121 210.899 435.492 179.296 419.959 152.392C404.426 125.488 374.871 113.471 353.945 125.553C333.02 137.634 328.649 169.238 344.182 196.142C359.715 223.046 389.27 235.062 410.195 222.981Z" fill="#111111" fill-opacity="0.05"/>
</g>
<defs>
<clipPath id="clip0_750_627">
<rect width="400" height="400" fill="white" transform="translate(0 200) rotate(-30)"/>
</clipPath>
</defs>
</svg>
