<svg width="60" height="60" viewBox="0 0 60 60" fill="none" xmlns="http://www.w3.org/2000/svg">
<circle cx="30" cy="30" r="30" fill="#FFEF3D"/>
<path d="M19.6431 33.2144V36.0716C19.6546 38.0801 20.6031 37.768 21.306 37.1651L25.3574 33.5073V35.3573C25.3574 37.093 25.7574 37.5001 27.5003 37.5001H33.9289C33.9289 37.5001 37.6496 41.8751 37.6789 41.8459C38.2146 42.5001 39.6653 42.2773 39.6431 41.0716V37.5001H41.786C43.536 37.5001 43.9289 37.0651 43.9289 35.3573V24.643C43.9289 22.9287 43.5074 22.5001 41.786 22.5001H34.6431V21.0716C34.6431 19.3073 34.3146 18.9287 32.5003 18.9287H17.5003C15.8146 18.9287 15.3574 19.293 15.3574 21.0716V30.3573C15.3574 32.0994 15.7503 33.2144 17.5003 33.2144H19.6431ZM37.5003 35.3573V38.7294L34.6431 35.3573H28.2146C27.6789 35.3573 27.5003 35.1644 27.5003 34.643V25.3573C27.5003 24.8787 27.7217 24.643 28.2146 24.643H41.0717C41.5639 24.643 41.786 24.9073 41.786 25.3144V34.643C41.786 35.158 41.5296 35.3573 41.0717 35.3573H37.5003Z" fill="#111111"/>
</svg>
