<svg width="35" height="35" viewBox="0 0 35 35" fill="none" xmlns="http://www.w3.org/2000/svg">
<path fill-rule="evenodd" clip-rule="evenodd" d="M17.4994 26.25C17.7895 26.25 18.0677 26.1348 18.2728 25.9297C18.4779 25.7245 18.5932 25.4463 18.5932 25.1563V12.4841L23.2876 17.1806C23.3892 17.2823 23.51 17.363 23.6428 17.418C23.7757 17.4731 23.9181 17.5014 24.0619 17.5014C24.2057 17.5014 24.3482 17.4731 24.481 17.418C24.6139 17.363 24.7346 17.2823 24.8363 17.1806C24.938 17.0789 25.0187 16.9582 25.0737 16.8253C25.1287 16.6925 25.1571 16.5501 25.1571 16.4063C25.1571 16.2624 25.1287 16.12 25.0737 15.9872C25.0187 15.8543 24.938 15.7336 24.8363 15.6319L18.2738 9.06938C18.1722 8.96752 18.0515 8.88671 17.9186 8.83157C17.7857 8.77643 17.6433 8.74805 17.4994 8.74805C17.3556 8.74805 17.2131 8.77643 17.0802 8.83157C16.9474 8.88671 16.8267 8.96752 16.7251 9.06938L10.1626 15.6319C9.95718 15.8373 9.8418 16.1158 9.8418 16.4063C9.8418 16.6967 9.95718 16.9753 10.1626 17.1806C10.3679 17.386 10.6465 17.5014 10.9369 17.5014C11.2274 17.5014 11.5059 17.386 11.7113 17.1806L16.4057 12.4841V25.1563C16.4057 25.4463 16.5209 25.7245 16.726 25.9297C16.9311 26.1348 17.2093 26.25 17.4994 26.25Z" fill="white"/>
</svg>
