<svg width="15" height="15" viewBox="0 0 15 15" fill="none" xmlns="http://www.w3.org/2000/svg">
<path d="M12.4219 4.80469C12.1206 4.80469 11.826 4.89404 11.5755 5.06143C11.325 5.22883 11.1297 5.46676 11.0144 5.74513C10.8991 6.0235 10.8689 6.32982 10.9277 6.62533C10.9865 6.92085 11.1316 7.1923 11.3446 7.40536C11.5577 7.61841 11.8292 7.76351 12.1247 7.82229C12.4202 7.88107 12.7265 7.8509 13.0049 7.7356C13.2832 7.62029 13.5212 7.42503 13.6886 7.1745C13.856 6.92397 13.9453 6.62943 13.9453 6.32812C13.9448 5.92423 13.7842 5.53701 13.4986 5.25141C13.213 4.96581 12.8258 4.80515 12.4219 4.80469ZM12.4219 7.14844C12.2596 7.14844 12.101 7.10033 11.9661 7.01019C11.8312 6.92005 11.7261 6.79194 11.664 6.64205C11.6019 6.49215 11.5857 6.32722 11.6173 6.16809C11.649 6.00897 11.7271 5.8628 11.8418 5.74808C11.9566 5.63335 12.1027 5.55523 12.2618 5.52357C12.421 5.49192 12.5859 5.50817 12.7358 5.57026C12.8857 5.63234 13.0138 5.73748 13.1039 5.87238C13.1941 6.00728 13.2422 6.16588 13.2422 6.32812C13.2419 6.54561 13.1554 6.75412 13.0017 6.9079C12.8479 7.06168 12.6394 7.14819 12.4219 7.14844ZM4.10156 6.32812C4.10156 6.02682 4.01222 5.73228 3.84482 5.48175C3.67742 5.23122 3.43949 5.03596 3.16112 4.92065C2.88275 4.80535 2.57644 4.77518 2.28092 4.83396C1.9854 4.89274 1.71395 5.03784 1.50089 5.25089C1.28784 5.46395 1.14274 5.7354 1.08396 6.03092C1.02518 6.32644 1.05535 6.63275 1.17065 6.91112C1.28596 7.18949 1.48122 7.42742 1.73175 7.59482C1.98228 7.76221 2.27682 7.85156 2.57813 7.85156C2.98202 7.8511 3.36925 7.69044 3.65484 7.40484C3.94044 7.11925 4.1011 6.73202 4.10156 6.32812ZM2.57813 7.14844C2.41588 7.14844 2.25728 7.10033 2.12238 7.01019C1.98748 6.92005 1.88234 6.79194 1.82026 6.64205C1.75817 6.49215 1.74192 6.32722 1.77358 6.16809C1.80523 6.00897 1.88335 5.8628 1.99808 5.74808C2.1128 5.63335 2.25897 5.55523 2.41809 5.52357C2.57722 5.49192 2.74215 5.50817 2.89205 5.57026C3.04194 5.63234 3.17005 5.73748 3.26019 5.87238C3.35033 6.00728 3.39844 6.16588 3.39844 6.32812C3.39819 6.54561 3.31168 6.75412 3.1579 6.9079C3.00412 7.06168 2.79561 7.14819 2.57813 7.14844ZM5.39063 5.03906C5.69193 5.03906 5.98647 4.94971 6.237 4.78232C6.48753 4.61492 6.68279 4.37699 6.7981 4.09862C6.9134 3.82025 6.94357 3.51394 6.88479 3.21842C6.82601 2.9229 6.68092 2.65145 6.46786 2.43839C6.2548 2.22534 5.98335 2.08024 5.68783 2.02146C5.39232 1.96268 5.086 1.99285 4.80763 2.10815C4.52926 2.22346 4.29133 2.41872 4.12393 2.66925C3.95654 2.91978 3.86719 3.21432 3.86719 3.51563C3.86765 3.91952 4.02831 4.30675 4.31391 4.59234C4.59951 4.87794 4.98673 5.0386 5.39063 5.03906ZM5.39063 2.69531C5.55287 2.69531 5.71147 2.74342 5.84637 2.83356C5.98127 2.9237 6.08641 3.05181 6.1485 3.20171C6.21058 3.3516 6.22683 3.51654 6.19518 3.67566C6.16352 3.83479 6.0854 3.98095 5.97067 4.09567C5.85595 4.2104 5.70979 4.28852 5.55066 4.32018C5.39154 4.35183 5.2266 4.33558 5.07671 4.2735C4.92681 4.21141 4.7987 4.10627 4.70856 3.97137C4.61842 3.83647 4.57031 3.67787 4.57031 3.51563C4.57056 3.29814 4.65707 3.08964 4.81085 2.93585C4.96464 2.78207 5.17314 2.69556 5.39063 2.69531ZM9.60938 5.03906C9.91068 5.03906 10.2052 4.94971 10.4558 4.78232C10.7063 4.61492 10.9015 4.37699 11.0168 4.09862C11.1322 3.82025 11.1623 3.51394 11.1035 3.21842C11.0448 2.9229 10.8997 2.65145 10.6866 2.43839C10.4736 2.22534 10.2021 2.08024 9.90658 2.02146C9.61107 1.96268 9.30475 1.99285 9.02638 2.10815C8.74801 2.22346 8.51008 2.41872 8.34268 2.66925C8.17529 2.91978 8.08594 3.21432 8.08594 3.51563C8.0864 3.91952 8.24706 4.30675 8.53266 4.59234C8.81826 4.87794 9.20548 5.0386 9.60938 5.03906ZM9.60938 2.69531C9.77162 2.69531 9.93022 2.74342 10.0651 2.83356C10.2 2.9237 10.3052 3.05181 10.3672 3.20171C10.4293 3.3516 10.4456 3.51654 10.4139 3.67566C10.3823 3.83479 10.3041 3.98095 10.1894 4.09567C10.0747 4.2104 9.92854 4.28852 9.76941 4.32018C9.61029 4.35183 9.44535 4.33558 9.29546 4.2735C9.14556 4.21141 9.01745 4.10627 8.92731 3.97137C8.83717 3.83647 8.78906 3.67787 8.78906 3.51563C8.78931 3.29814 8.87582 3.08964 9.0296 2.93585C9.18339 2.78207 9.39189 2.69556 9.60938 2.69531ZM10.9057 8.82393C10.3986 8.54343 10.0236 8.07311 9.86309 7.51629C9.71436 7.00464 9.40358 6.55508 8.97747 6.23517C8.55135 5.91527 8.03292 5.74231 7.50009 5.74229C6.96726 5.74226 6.44881 5.91517 6.02266 6.23503C5.59652 6.55489 5.2857 7.00442 5.13691 7.51606C4.97685 8.07245 4.60243 8.54252 4.09594 8.82299C3.5933 9.09542 3.21469 9.55072 3.03852 10.0946C2.86234 10.6385 2.90209 11.2293 3.14953 11.7447C3.39698 12.2601 3.83316 12.6606 4.36776 12.8633C4.90236 13.0659 5.49442 13.0552 6.02133 12.8333C6.96693 12.4426 8.02872 12.4421 8.97475 12.8317C9.50144 13.0548 10.0938 13.0666 10.6289 12.8648C11.1641 12.6629 11.6011 12.2629 11.8494 11.7477C12.0976 11.2324 12.1381 10.6413 11.9624 10.097C11.7868 9.55269 11.4084 9.09684 10.9057 8.82393ZM9.84375 12.3047C9.63814 12.305 9.43462 12.2635 9.24551 12.1828C8.12621 11.721 6.86949 11.7216 5.75063 12.1845C5.38977 12.3373 4.98392 12.3452 4.61738 12.2066C4.25084 12.068 3.95179 11.7935 3.78236 11.4401C3.61292 11.0868 3.58613 10.6817 3.70754 10.3091C3.82895 9.93653 4.08923 9.62503 4.43432 9.43934C4.76616 9.25607 5.05865 9.00922 5.29507 8.71289C5.5315 8.41655 5.70722 8.07655 5.81221 7.71229C5.91844 7.34682 6.14043 7.0257 6.44481 6.79721C6.74919 6.56872 7.11951 6.4452 7.5001 6.44521C7.8807 6.44522 8.25101 6.56877 8.55537 6.79728C8.85973 7.0258 9.0817 7.34693 9.18791 7.7124C9.29286 8.07666 9.46856 8.41666 9.70496 8.71299C9.94137 9.00931 10.2338 9.25615 10.5657 9.43939L10.5688 9.44109C10.8669 9.60247 11.1027 9.85863 11.2388 10.1691C11.375 10.4795 11.4037 10.8264 11.3205 11.155C11.2373 11.4836 11.0469 11.7751 10.7794 11.9833C10.512 12.1915 10.1827 12.3046 9.84375 12.3047Z" fill="#111111"/>
</svg>
