<svg width="15" height="15" viewBox="0 0 15 15" fill="none" xmlns="http://www.w3.org/2000/svg">
<path d="M12.4219 4.92188C12.1437 4.92188 11.8719 5.00435 11.6406 5.15887C11.4093 5.31339 11.2291 5.53302 11.1227 5.78998C11.0162 6.04694 10.9884 6.32969 11.0426 6.60247C11.0969 6.87526 11.2308 7.12583 11.4275 7.32249C11.6242 7.51916 11.8747 7.65309 12.1475 7.70735C12.4203 7.76162 12.7031 7.73377 12.96 7.62733C13.217 7.5209 13.4366 7.34065 13.5911 7.1094C13.7457 6.87814 13.8281 6.60626 13.8281 6.32813C13.8277 5.95529 13.6794 5.59785 13.4158 5.33422C13.1522 5.07059 12.7947 4.92229 12.4219 4.92188ZM12.4219 7.26563C12.2365 7.26563 12.0552 7.21064 11.901 7.10763C11.7469 7.00461 11.6267 6.8582 11.5557 6.68689C11.4848 6.51559 11.4662 6.32709 11.5024 6.14523C11.5386 5.96337 11.6279 5.79632 11.759 5.66521C11.8901 5.5341 12.0571 5.44481 12.239 5.40864C12.4208 5.37247 12.6093 5.39103 12.7806 5.46199C12.9519 5.53295 13.0984 5.65311 13.2014 5.80728C13.3044 5.96145 13.3594 6.14271 13.3594 6.32813C13.3591 6.57668 13.2602 6.81497 13.0845 6.99073C12.9087 7.16648 12.6704 7.26535 12.4219 7.26563V7.26563ZM3.98438 6.32813C3.98438 6.05 3.9019 5.77811 3.74738 5.54685C3.59286 5.3156 3.37323 5.13536 3.11627 5.02892C2.85932 4.92248 2.57657 4.89464 2.30378 4.9489C2.03099 5.00316 1.78042 5.13709 1.58376 5.33376C1.38709 5.53042 1.25316 5.78099 1.1989 6.05378C1.14464 6.32657 1.17248 6.60932 1.27892 6.86627C1.38536 7.12323 1.5656 7.34286 1.79686 7.49738C2.02811 7.6519 2.3 7.73438 2.57813 7.73438C2.95096 7.73396 3.3084 7.58566 3.57203 7.32203C3.83566 7.0584 3.98396 6.70096 3.98438 6.32813V6.32813ZM2.57813 7.26563C2.39271 7.26563 2.21145 7.21064 2.05728 7.10763C1.90311 7.00461 1.78295 6.8582 1.71199 6.68689C1.64103 6.51559 1.62247 6.32709 1.65864 6.14523C1.69481 5.96337 1.7841 5.79632 1.91521 5.66521C2.04632 5.5341 2.21337 5.44481 2.39523 5.40864C2.57709 5.37247 2.76559 5.39103 2.93689 5.46199C3.1082 5.53295 3.25461 5.65311 3.35763 5.80728C3.46064 5.96145 3.51563 6.14271 3.51563 6.32813C3.51535 6.57668 3.41648 6.81497 3.24073 6.99073C3.06497 7.16648 2.82668 7.26535 2.57813 7.26563V7.26563ZM5.39063 4.92188C5.66876 4.92188 5.94064 4.8394 6.1719 4.68488C6.40315 4.53036 6.5834 4.31073 6.68983 4.05377C6.79627 3.79682 6.82412 3.51407 6.76985 3.24128C6.71559 2.96849 6.58166 2.71792 6.38499 2.52126C6.18833 2.32459 5.93776 2.19066 5.66497 2.1364C5.39219 2.08214 5.10944 2.10998 4.85248 2.21642C4.59552 2.32286 4.37589 2.5031 4.22137 2.73435C4.06685 2.96561 3.98438 3.2375 3.98438 3.51563C3.98479 3.88846 4.13309 4.2459 4.39672 4.50953C4.66035 4.77316 5.01779 4.92146 5.39063 4.92188V4.92188ZM5.39063 2.57813C5.57605 2.57813 5.7573 2.63311 5.91147 2.73612C6.06564 2.83914 6.18581 2.98555 6.25676 3.15686C6.32772 3.32817 6.34629 3.51667 6.31011 3.69852C6.27394 3.88038 6.18465 4.04743 6.05354 4.17854C5.92243 4.30965 5.75538 4.39894 5.57352 4.43511C5.39167 4.47129 5.20317 4.45272 5.03186 4.38176C4.86055 4.31081 4.71414 4.19064 4.61112 4.03647C4.50811 3.8823 4.45313 3.70105 4.45313 3.51563C4.4534 3.26707 4.55227 3.02878 4.72802 2.85302C4.90378 2.67727 5.14207 2.5784 5.39063 2.57813V2.57813ZM9.60938 4.92188C9.88751 4.92188 10.1594 4.8394 10.3906 4.68488C10.6219 4.53036 10.8021 4.31073 10.9086 4.05377C11.015 3.79682 11.0429 3.51407 10.9886 3.24128C10.9343 2.96849 10.8004 2.71792 10.6037 2.52126C10.4071 2.32459 10.1565 2.19066 9.88372 2.1364C9.61094 2.08214 9.32819 2.10998 9.07123 2.21642C8.81427 2.32286 8.59464 2.5031 8.44012 2.73435C8.2856 2.96561 8.20313 3.2375 8.20313 3.51563C8.20354 3.88846 8.35184 4.2459 8.61547 4.50953C8.8791 4.77316 9.23654 4.92146 9.60938 4.92188V4.92188ZM9.60938 2.57813C9.7948 2.57813 9.97605 2.63311 10.1302 2.73612C10.2844 2.83914 10.4046 2.98555 10.4755 3.15686C10.5465 3.32817 10.565 3.51667 10.5289 3.69852C10.4927 3.88038 10.4034 4.04743 10.2723 4.17854C10.1412 4.30965 9.97413 4.39894 9.79227 4.43511C9.61042 4.47129 9.42192 4.45272 9.25061 4.38176C9.0793 4.31081 8.93289 4.19064 8.82987 4.03647C8.72686 3.8823 8.67188 3.70105 8.67188 3.51563C8.67216 3.26707 8.77102 3.02878 8.94677 2.85302C9.12253 2.67727 9.36082 2.5784 9.60938 2.57813V2.57813ZM10.8492 8.92658C10.3149 8.63116 9.91971 8.13566 9.75059 7.54898C9.60898 7.06164 9.31302 6.63343 8.90718 6.32872C8.50135 6.024 8.00756 5.85925 7.50007 5.85923C6.99257 5.85921 6.49878 6.02392 6.09291 6.32861C5.68705 6.63329 5.39106 7.06148 5.24941 7.54881C5.08058 8.13523 4.68576 8.6306 4.15178 8.926C3.67538 9.18407 3.31653 9.61553 3.14958 10.131C2.98263 10.6464 3.02038 11.2063 3.255 11.6947C3.48962 12.1831 3.90314 12.5624 4.40986 12.7542C4.91658 12.946 5.47766 12.9355 5.97686 12.7249C6.9514 12.3224 8.04567 12.322 9.02051 12.7238C9.51953 12.935 10.0807 12.9462 10.5877 12.7549C11.0947 12.5636 11.5086 12.1846 11.7438 11.6963C11.9789 11.2081 12.0171 10.6482 11.8506 10.1325C11.6841 9.61685 11.3255 9.18504 10.8492 8.92658V8.92658ZM9.84375 12.4219C9.62286 12.4222 9.4042 12.3778 9.20098 12.2912C8.11063 11.8413 6.88642 11.8417 5.79639 12.2924C5.40789 12.457 4.97091 12.4657 4.57619 12.3166C4.18146 12.1675 3.85934 11.8721 3.67671 11.4917C3.49408 11.1113 3.46498 10.6752 3.59546 10.274C3.72593 9.87272 4.00595 9.53713 4.37736 9.33691C4.69582 9.16106 4.97651 8.92418 5.20339 8.63981C5.43028 8.35544 5.59891 8.02915 5.69965 7.67959C5.81298 7.28976 6.04977 6.94725 6.37444 6.70353C6.69911 6.45981 7.09411 6.32805 7.50008 6.32806C7.90605 6.32807 8.30105 6.45984 8.62571 6.70357C8.95037 6.9473 9.18715 7.28982 9.30047 7.67965C9.40118 8.0292 9.56978 8.35548 9.79665 8.63984C10.0235 8.92421 10.3042 9.16108 10.6226 9.33691L10.6247 9.33809C10.9457 9.51189 11.1996 9.78776 11.3462 10.1221C11.4927 10.4563 11.5237 10.83 11.4341 11.1838C11.3445 11.5377 11.1394 11.8516 10.8514 12.0758C10.5634 12.3 10.2088 12.4218 9.84375 12.4219V12.4219Z" fill="white"/>
</svg>
