<svg width="15" height="15" viewBox="0 0 15 15" fill="none" xmlns="http://www.w3.org/2000/svg">
<path d="M7.96875 3.51563C7.96875 3.19114 8.06497 2.87394 8.24525 2.60414C8.42552 2.33434 8.68175 2.12406 8.98154 1.99989C9.28132 1.87571 9.6112 1.84322 9.92945 1.90652C10.2477 1.96983 10.54 2.12608 10.7695 2.35553C10.9989 2.58497 11.1552 2.87731 11.2185 3.19556C11.2818 3.51381 11.2493 3.84368 11.1251 4.14347C11.0009 4.44325 10.7907 4.69948 10.5209 4.87976C10.2511 5.06003 9.93386 5.15625 9.60938 5.15625C9.1744 5.15577 8.75738 4.98276 8.44981 4.67519C8.14224 4.36762 7.96923 3.9506 7.96875 3.51563V3.51563ZM4.21875 6.32813C4.21875 6.00364 4.12253 5.68644 3.94226 5.41664C3.76198 5.14684 3.50575 4.93656 3.20597 4.81239C2.90618 4.68821 2.57631 4.65572 2.25806 4.71902C1.93981 4.78233 1.64747 4.93858 1.41803 5.16803C1.18858 5.39747 1.03233 5.68981 0.969025 6.00806C0.905721 6.32631 0.938211 6.65618 1.06239 6.95597C1.18656 7.25575 1.39684 7.51198 1.66664 7.69225C1.93644 7.87253 2.25364 7.96875 2.57813 7.96875C3.0131 7.96827 3.43012 7.79526 3.73769 7.48769C4.04526 7.18012 4.21827 6.7631 4.21875 6.32813V6.32813ZM5.39063 5.15625C5.71511 5.15625 6.03231 5.06003 6.30211 4.87976C6.57191 4.69948 6.78219 4.44325 6.90637 4.14347C7.03054 3.84368 7.06303 3.51381 6.99973 3.19556C6.93642 2.87731 6.78017 2.58497 6.55072 2.35553C6.32128 2.12608 6.02895 1.96983 5.7107 1.90652C5.39245 1.84322 5.06257 1.87571 4.76279 1.99989C4.463 2.12406 4.20677 2.33434 4.0265 2.60414C3.84622 2.87394 3.75 3.19114 3.75 3.51563C3.75048 3.9506 3.92349 4.36762 4.23106 4.67519C4.53863 4.98276 4.95565 5.15577 5.39063 5.15625V5.15625ZM10.9624 8.72139C10.4825 8.45583 10.1276 8.01067 9.97559 7.48365C9.81983 6.94759 9.49429 6.47657 9.04788 6.14138C8.60148 5.8062 8.05834 5.62498 7.50011 5.62494C6.94188 5.62491 6.39872 5.80607 5.95228 6.1412C5.50583 6.47633 5.18023 6.94732 5.02441 7.48336C4.87305 8.00969 4.51902 8.45444 4.04004 8.71998C3.51101 9.00669 3.11249 9.48585 2.92699 10.0583C2.74148 10.6307 2.7832 11.2525 3.04351 11.795C3.30381 12.3375 3.76277 12.7592 4.32536 12.9726C4.88794 13.1861 5.51108 13.1751 6.06574 12.9418C6.98241 12.5629 8.01174 12.5621 8.92899 12.9396C9.48331 13.1743 10.1067 13.1868 10.6699 12.9744C11.2332 12.762 11.6931 12.3411 11.9545 11.7989C12.2159 11.2566 12.2587 10.6346 12.074 10.0617C11.8893 9.48878 11.4913 9.00886 10.9624 8.72139V8.72139ZM12.4219 4.6875C12.0974 4.6875 11.7802 4.78372 11.5104 4.964C11.2406 5.14427 11.0303 5.4005 10.9061 5.70029C10.782 6.00007 10.7495 6.32995 10.8128 6.6482C10.8761 6.96645 11.0323 7.25878 11.2618 7.48822C11.4912 7.71767 11.7836 7.87392 12.1018 7.93723C12.4201 8.00053 12.7499 7.96804 13.0497 7.84387C13.3495 7.71969 13.6057 7.50941 13.786 7.23961C13.9663 6.96981 14.0625 6.65261 14.0625 6.32813C14.062 5.89315 13.889 5.47613 13.5814 5.16856C13.2739 4.86099 12.8568 4.68798 12.4219 4.6875Z" fill="white"/>
</svg>
