<svg width="15" height="15" viewBox="0 0 15 15" fill="none" xmlns="http://www.w3.org/2000/svg">
<path d="M6.98589 12.2306C7.04323 12.3139 7.11995 12.382 7.20945 12.429C7.29894 12.4761 7.39853 12.5006 7.49964 12.5006C7.60075 12.5006 7.70034 12.4761 7.78983 12.429C7.87933 12.382 7.95605 12.3139 8.01339 12.2306L13.6384 4.10563C13.7035 4.01191 13.7417 3.90214 13.7488 3.78825C13.7559 3.67436 13.7317 3.5607 13.6787 3.45962C13.6257 3.35854 13.5461 3.27391 13.4484 3.21491C13.3507 3.15592 13.2388 3.12482 13.1246 3.125H1.87464C1.76079 3.12547 1.64923 3.15697 1.55194 3.2161C1.45465 3.27524 1.37533 3.35977 1.3225 3.46062C1.26966 3.56147 1.24532 3.67481 1.25208 3.78846C1.25885 3.90211 1.29647 4.01176 1.36089 4.10563L6.98589 12.2306Z" fill="#111111"/>
</svg>
