<svg width="22" height="22" viewBox="0 0 22 22" fill="none" xmlns="http://www.w3.org/2000/svg">
<path d="M6.87507 15.4687C6.87507 16.0379 7.33707 16.4999 7.90632 16.4999H12.0313C13.6566 16.4999 14.9642 15.9334 15.8648 15.0053C16.7199 14.1131 17.1943 12.9232 17.1876 11.6874C17.1943 10.4516 16.7199 9.26172 15.8648 8.36954C14.9642 7.44141 13.6566 6.87491 12.0313 6.87491H7.64507L8.63507 5.88491C8.81723 5.68942 8.9164 5.43086 8.91168 5.16369C8.90697 4.89653 8.79874 4.64162 8.6098 4.45268C8.42086 4.26374 8.16595 4.15551 7.89879 4.1508C7.63162 4.14608 7.37306 4.24525 7.17757 4.42741L4.42757 7.17741C4.23445 7.37077 4.12598 7.63288 4.12598 7.90616C4.12598 8.17944 4.23445 8.44155 4.42757 8.63491L7.17757 11.3849C7.37306 11.5671 7.63162 11.6662 7.89879 11.6615C8.16595 11.6568 8.42086 11.5486 8.6098 11.3596C8.79874 11.1707 8.90697 10.9158 8.91168 10.6486C8.9164 10.3815 8.81723 10.1229 8.63507 9.92741L7.64507 8.93741H12.0313C13.1561 8.93741 13.9109 9.31691 14.3853 9.80504C14.8707 10.3069 15.1251 10.9875 15.1251 11.6874C15.1322 12.3871 14.8669 13.0622 14.3853 13.5698C13.9109 14.0579 13.1561 14.4374 12.0313 14.4374H7.90632C7.63281 14.4374 7.37051 14.5461 7.17711 14.7395C6.98372 14.9329 6.87507 15.1952 6.87507 15.4687V15.4687Z" fill="white"/>
</svg>
