<svg width="28" height="28" viewBox="0 0 28 28" fill="none" xmlns="http://www.w3.org/2000/svg">
<g filter="url(#filter0_d_649_462)">
<path d="M22 2V14H10V2H22ZM22 0H10C8.9 0 8 0.9 8 2V14C8 15.1 8.9 16 10 16H22C23.1 16 24 15.1 24 14V2C24 0.9 23.1 0 22 0ZM13.5 9.67L15.19 11.93L17.67 8.83L21 13H11L13.5 9.67ZM4 4V18C4 19.1 4.9 20 6 20H20V18H6V4H4Z" fill="black"/>
</g>
<defs>
<filter id="filter0_d_649_462" x="0" y="0" width="28" height="28" filterUnits="userSpaceOnUse" color-interpolation-filters="sRGB">
<feFlood flood-opacity="0" result="BackgroundImageFix"/>
<feColorMatrix in="SourceAlpha" type="matrix" values="0 0 0 0 0 0 0 0 0 0 0 0 0 0 0 0 0 0 127 0" result="hardAlpha"/>
<feOffset dy="4"/>
<feGaussianBlur stdDeviation="2"/>
<feComposite in2="hardAlpha" operator="out"/>
<feColorMatrix type="matrix" values="0 0 0 0 0 0 0 0 0 0 0 0 0 0 0 0 0 0 0.25 0"/>
<feBlend mode="normal" in2="BackgroundImageFix" result="effect1_dropShadow_649_462"/>
<feBlend mode="normal" in="SourceGraphic" in2="effect1_dropShadow_649_462" result="shape"/>
</filter>
</defs>
</svg>
