<svg width="15" height="15" viewBox="0 0 15 15" fill="none" xmlns="http://www.w3.org/2000/svg">
<path d="M7.5 0.39209C3.36 0.39209 0 3.62248 0 7.60278C0 11.5831 3.36 14.8135 7.5 14.8135C11.64 14.8135 15 11.5831 15 7.60278C15 3.62248 11.64 0.39209 7.5 0.39209ZM8.25 10.4581C8.25 10.8723 7.91421 11.2081 7.5 11.2081V11.2081C7.08579 11.2081 6.75 10.8723 6.75 10.4581V7.63171C6.75 7.2175 7.08579 6.88171 7.5 6.88171V6.88171C7.91421 6.88171 8.25 7.2175 8.25 7.63171V10.4581ZM8.25 4.71851C8.25 5.11674 7.92717 5.43958 7.52893 5.43958H7.47107C7.07283 5.43958 6.75 5.11674 6.75 4.71851V4.71851C6.75 4.32027 7.07283 3.99744 7.47107 3.99744H7.52893C7.92717 3.99744 8.25 4.32027 8.25 4.71851V4.71851Z" fill="white"/>
</svg>
